<mxfile host="Electron" agent="Mozilla/5.0 (Windows NT 10.0; Win64; x64) AppleWebKit/537.36 (KHTML, like Gecko) draw.io/26.0.4 Chrome/128.0.6613.186 Electron/32.2.5 Safari/537.36" version="26.0.4">
  <diagram name="Page-1" id="e7e014a7-5840-1c2e-5031-d8a46d1fe8dd">
    <mxGraphModel dx="724" dy="428" grid="1" gridSize="10" guides="1" tooltips="1" connect="1" arrows="1" fold="1" page="1" pageScale="1" pageWidth="1169" pageHeight="826" background="none" math="0" shadow="0">
      <root>
        <mxCell id="0" />
        <mxCell id="1" parent="0" />
        <mxCell id="2" value="User" style="swimlane;whiteSpace=wrap" parent="1" vertex="1">
          <mxGeometry x="163.5" y="128" width="280" height="742" as="geometry" />
        </mxCell>
        <mxCell id="5" value="" style="ellipse;shape=startState;fillColor=#000000;strokeColor=#ff0000;" parent="2" vertex="1">
          <mxGeometry x="122" y="40" width="30" height="30" as="geometry" />
        </mxCell>
        <mxCell id="6" value="" style="edgeStyle=elbowEdgeStyle;elbow=horizontal;verticalAlign=bottom;endArrow=open;endSize=8;strokeColor=#FF0000;endFill=1;rounded=0" parent="2" source="5" target="s-BfRgvf0zxbv7zj_gmu-43" edge="1">
          <mxGeometry x="100" y="40" as="geometry">
            <mxPoint x="137.5" y="110" as="targetPoint" />
          </mxGeometry>
        </mxCell>
        <mxCell id="s-BfRgvf0zxbv7zj_gmu-43" value="Người dùng chọn thanh toán" style="rounded=1;whiteSpace=wrap;html=1;arcSize=40;fontColor=#000000;fillColor=#ffffc0;strokeColor=#ff0000;" parent="2" vertex="1">
          <mxGeometry x="77.5" y="112" width="120" height="40" as="geometry" />
        </mxCell>
        <mxCell id="s-BfRgvf0zxbv7zj_gmu-44" value="" style="edgeStyle=orthogonalEdgeStyle;html=1;verticalAlign=bottom;endArrow=open;endSize=8;strokeColor=#ff0000;rounded=0;" parent="2" source="s-BfRgvf0zxbv7zj_gmu-43" target="s-BfRgvf0zxbv7zj_gmu-45" edge="1">
          <mxGeometry relative="1" as="geometry">
            <mxPoint x="137.5" y="182" as="targetPoint" />
          </mxGeometry>
        </mxCell>
        <mxCell id="s-BfRgvf0zxbv7zj_gmu-45" value="Nhập thông tin thanh toán" style="rounded=1;whiteSpace=wrap;html=1;arcSize=40;fontColor=#000000;fillColor=#ffffc0;strokeColor=#ff0000;" parent="2" vertex="1">
          <mxGeometry x="77.5" y="185" width="120" height="40" as="geometry" />
        </mxCell>
        <mxCell id="s-BfRgvf0zxbv7zj_gmu-46" value="" style="edgeStyle=orthogonalEdgeStyle;html=1;verticalAlign=bottom;endArrow=open;endSize=8;strokeColor=#ff0000;rounded=0;" parent="2" source="s-BfRgvf0zxbv7zj_gmu-45" edge="1">
          <mxGeometry relative="1" as="geometry">
            <mxPoint x="137.5" y="285" as="targetPoint" />
          </mxGeometry>
        </mxCell>
        <mxCell id="s-BfRgvf0zxbv7zj_gmu-47" value="Chọn thông tin thanh toán" style="rounded=1;whiteSpace=wrap;html=1;arcSize=40;fontColor=#000000;fillColor=#ffffc0;strokeColor=#ff0000;" parent="2" vertex="1">
          <mxGeometry x="77.5" y="285" width="120" height="40" as="geometry" />
        </mxCell>
        <mxCell id="3" value="System" style="swimlane;whiteSpace=wrap" parent="1" vertex="1">
          <mxGeometry x="444.5" y="128" width="415.5" height="742" as="geometry" />
        </mxCell>
        <mxCell id="s-BfRgvf0zxbv7zj_gmu-49" value="" style="rhombus;whiteSpace=wrap;html=1;fontColor=#000000;fillColor=#ffffc0;strokeColor=#ff0000;" parent="3" vertex="1">
          <mxGeometry x="85.5" y="285" width="80" height="40" as="geometry" />
        </mxCell>
        <mxCell id="s-BfRgvf0zxbv7zj_gmu-50" value="no" style="edgeStyle=orthogonalEdgeStyle;html=1;align=left;verticalAlign=bottom;endArrow=open;endSize=8;strokeColor=#ff0000;rounded=0;" parent="3" source="s-BfRgvf0zxbv7zj_gmu-49" edge="1" target="NN2RJEkk8OrZqAytUJuU-7">
          <mxGeometry x="-1" relative="1" as="geometry">
            <mxPoint x="235.5" y="305" as="targetPoint" />
          </mxGeometry>
        </mxCell>
        <mxCell id="s-BfRgvf0zxbv7zj_gmu-51" value="yes" style="edgeStyle=orthogonalEdgeStyle;html=1;align=left;verticalAlign=top;endArrow=open;endSize=8;strokeColor=#ff0000;rounded=0;" parent="3" source="s-BfRgvf0zxbv7zj_gmu-49" edge="1" target="NN2RJEkk8OrZqAytUJuU-9">
          <mxGeometry x="-1" relative="1" as="geometry">
            <mxPoint x="125.5" y="385" as="targetPoint" />
          </mxGeometry>
        </mxCell>
        <mxCell id="s-BfRgvf0zxbv7zj_gmu-52" value="Xác nhận thông tin thanh toán" style="rounded=1;whiteSpace=wrap;html=1;arcSize=40;fontColor=#000000;fillColor=#ffffc0;strokeColor=#ff0000;" parent="3" vertex="1">
          <mxGeometry x="65.5" y="182" width="120" height="40" as="geometry" />
        </mxCell>
        <mxCell id="s-BfRgvf0zxbv7zj_gmu-53" value="" style="edgeStyle=orthogonalEdgeStyle;html=1;verticalAlign=bottom;endArrow=open;endSize=8;strokeColor=#ff0000;rounded=0;" parent="3" source="s-BfRgvf0zxbv7zj_gmu-52" target="s-BfRgvf0zxbv7zj_gmu-49" edge="1">
          <mxGeometry relative="1" as="geometry">
            <mxPoint x="125.5" y="282" as="targetPoint" />
          </mxGeometry>
        </mxCell>
        <mxCell id="NN2RJEkk8OrZqAytUJuU-7" value="Hiện thông báo lỗi" style="rounded=1;whiteSpace=wrap;html=1;arcSize=40;fontColor=#000000;fillColor=#ffffc0;strokeColor=#ff0000;" vertex="1" parent="3">
          <mxGeometry x="245.5" y="285" width="120" height="40" as="geometry" />
        </mxCell>
        <mxCell id="NN2RJEkk8OrZqAytUJuU-8" value="" style="edgeStyle=orthogonalEdgeStyle;html=1;verticalAlign=bottom;endArrow=open;endSize=8;strokeColor=#ff0000;rounded=0;" edge="1" source="NN2RJEkk8OrZqAytUJuU-7" parent="3" target="NN2RJEkk8OrZqAytUJuU-15">
          <mxGeometry relative="1" as="geometry">
            <mxPoint x="305.5" y="592" as="targetPoint" />
          </mxGeometry>
        </mxCell>
        <mxCell id="NN2RJEkk8OrZqAytUJuU-9" value="Xác nhận đơn hàng" style="rounded=1;whiteSpace=wrap;html=1;arcSize=40;fontColor=#000000;fillColor=#ffffc0;strokeColor=#ff0000;" vertex="1" parent="3">
          <mxGeometry x="65.5" y="382" width="120" height="40" as="geometry" />
        </mxCell>
        <mxCell id="NN2RJEkk8OrZqAytUJuU-10" value="" style="edgeStyle=orthogonalEdgeStyle;html=1;verticalAlign=bottom;endArrow=open;endSize=8;strokeColor=#ff0000;rounded=0;" edge="1" source="NN2RJEkk8OrZqAytUJuU-9" parent="3" target="NN2RJEkk8OrZqAytUJuU-11">
          <mxGeometry relative="1" as="geometry">
            <mxPoint x="125.5" y="482" as="targetPoint" />
          </mxGeometry>
        </mxCell>
        <mxCell id="NN2RJEkk8OrZqAytUJuU-11" value="Gửi xác nhận đơn hàng" style="rounded=1;whiteSpace=wrap;html=1;arcSize=40;fontColor=#000000;fillColor=#ffffc0;strokeColor=#ff0000;" vertex="1" parent="3">
          <mxGeometry x="65.5" y="482" width="120" height="40" as="geometry" />
        </mxCell>
        <mxCell id="NN2RJEkk8OrZqAytUJuU-12" value="" style="edgeStyle=orthogonalEdgeStyle;html=1;verticalAlign=bottom;endArrow=open;endSize=8;strokeColor=#ff0000;rounded=0;" edge="1" source="NN2RJEkk8OrZqAytUJuU-11" parent="3" target="NN2RJEkk8OrZqAytUJuU-13">
          <mxGeometry relative="1" as="geometry">
            <mxPoint x="125.5" y="582" as="targetPoint" />
          </mxGeometry>
        </mxCell>
        <mxCell id="NN2RJEkk8OrZqAytUJuU-13" value="Chuẩn bị giao hàng" style="rounded=1;whiteSpace=wrap;html=1;arcSize=40;fontColor=#000000;fillColor=#ffffc0;strokeColor=#ff0000;" vertex="1" parent="3">
          <mxGeometry x="65.5" y="582" width="120" height="40" as="geometry" />
        </mxCell>
        <mxCell id="NN2RJEkk8OrZqAytUJuU-14" value="" style="edgeStyle=orthogonalEdgeStyle;html=1;verticalAlign=bottom;endArrow=open;endSize=8;strokeColor=#ff0000;rounded=0;" edge="1" source="NN2RJEkk8OrZqAytUJuU-13" parent="3" target="NN2RJEkk8OrZqAytUJuU-15">
          <mxGeometry relative="1" as="geometry">
            <mxPoint x="275.5" y="602" as="targetPoint" />
          </mxGeometry>
        </mxCell>
        <mxCell id="NN2RJEkk8OrZqAytUJuU-15" value="" style="shape=line;html=1;strokeWidth=6;strokeColor=#ff0000;" vertex="1" parent="3">
          <mxGeometry x="280.5" y="597" width="50" height="10" as="geometry" />
        </mxCell>
        <mxCell id="NN2RJEkk8OrZqAytUJuU-16" value="" style="edgeStyle=orthogonalEdgeStyle;html=1;verticalAlign=bottom;endArrow=open;endSize=8;strokeColor=#ff0000;rounded=0;" edge="1" source="NN2RJEkk8OrZqAytUJuU-15" parent="3" target="NN2RJEkk8OrZqAytUJuU-18">
          <mxGeometry relative="1" as="geometry">
            <mxPoint x="305.5" y="682" as="targetPoint" />
            <Array as="points" />
          </mxGeometry>
        </mxCell>
        <mxCell id="NN2RJEkk8OrZqAytUJuU-18" value="" style="ellipse;html=1;shape=endState;fillColor=#000000;strokeColor=#ff0000;" vertex="1" parent="3">
          <mxGeometry x="290.5" y="682" width="30" height="30" as="geometry" />
        </mxCell>
        <mxCell id="s-BfRgvf0zxbv7zj_gmu-48" value="" style="edgeStyle=orthogonalEdgeStyle;html=1;verticalAlign=bottom;endArrow=open;endSize=8;strokeColor=#ff0000;rounded=0;" parent="1" source="s-BfRgvf0zxbv7zj_gmu-47" target="s-BfRgvf0zxbv7zj_gmu-52" edge="1">
          <mxGeometry relative="1" as="geometry">
            <mxPoint x="510" y="370" as="targetPoint" />
            <Array as="points">
              <mxPoint x="470" y="433" />
              <mxPoint x="470" y="330" />
            </Array>
          </mxGeometry>
        </mxCell>
      </root>
    </mxGraphModel>
  </diagram>
</mxfile>
